Coordinates
version=1
nRows=14
nColumns=42
inDegrees=yes

Units are S.I. units (second, meters, Newtons, ...)
If the header above contains a line with 'inDegrees', this indicates whether rotational values are in degrees (yes) or radians (no).

endheader
time	pelvis_tilt	pelvis_list	pelvis_rotation	pelvis_tx	pelvis_ty	pelvis_tz	hip_flexion_r	hip_adduction_r	hip_rotation_r	knee_angle_r	knee_adduction_r	knee_angle_r_beta	ankle_angle_r	subtalar_angle_r	mtp_angle_r	hip_flexion_l	hip_adduction_l	hip_rotation_l	knee_angle_l	knee_adduction_l	knee_angle_l_beta	ankle_angle_l	subtalar_angle_l	mtp_angle_l	lumbar_extension	lumbar_bending	lumbar_rotation	arm_flex_r	arm_add_r	arm_rot_r	elbow_flex_r	pro_sup_r	wrist_flex_r	wrist_dev_r	arm_flex_l	arm_add_l	arm_rot_l	elbow_flex_l	pro_sup_l	wrist_flex_l	wrist_dev_l
      2.10000000	      0.84642020	      7.34552043	     15.04115403	      0.45556119	      0.89286256	      0.41449156	     22.59007078	    -19.25406507	    -23.85885326	     38.43611624	     -0.00716920	      0.67083678	     14.40259264	      4.92158095	     -7.61112855	      1.49116083	      1.60228961	     -1.55743851	      3.53523014	      6.53415025	      0.06170141	      9.21649919	     28.50274992	     -7.61112855	    -20.06237559	     -6.79048238	     -5.79941811	    -11.33706828	    -11.88301928	    -19.45022838	     75.14987968	     90.00000001	      0.00000000	      0.00000000	      4.54467939	    -26.24494544	     15.42200823	     88.66419265	     90.00000001	      0.00000000	      0.00000000
      2.11000000	      1.12034471	      7.38218082	     15.44242160	      0.45981411	      0.89323161	      0.41534175	     21.42663492	    -18.76044117	    -24.95183156	     35.57471830	     -0.18450012	      0.62089596	     13.90097282	      7.27482976	     -7.60604770	      0.87982279	      1.26940079	     -1.38095363	      3.44323659	      6.78046619	      0.06009582	      9.48571075	     28.93019292	     -7.60604770	    -20.40717600	     -6.54624364	     -5.91353549	    -11.14686633	    -11.81346412	    -19.05385912	     74.56885441	     90.00000001	      0.00000000	      0.00000000	      4.83532957	    -26.36613508	     15.74998604	     88.89452157	     90.00000001	      0.00000000	      0.00000000
      2.12000000	      0.58978537	      7.68030393	     15.77694873	      0.46356195	      0.89230014	      0.41623459	     21.48989607	    -18.82063125	    -24.80581743	     33.71796405	      0.00386341	      0.58848949	     13.37766645	      7.94679701	     -7.60479641	      1.18033645	      1.66975013	     -1.20906465	      3.54034997	      6.60325635	      0.06179076	      9.63925074	     29.01711735	     -7.60479641	    -19.96391505	     -6.86463783	     -5.99596118	    -11.02989565	    -11.64845373	    -18.82389538	     74.13509997	     90.00000001	      0.00000000	      0.00000000	      5.04232543	    -26.46769193	     16.05982606	     89.18854874	     90.00000001	      0.00000000	      0.00000000
      2.13000000	      0.31259432	      7.80818546	     16.21204540	      0.46731289	      0.89192468	      0.41720563	     21.14652445	    -18.64181672	    -24.90731471	     32.05341891	      0.09383896	      0.55943770	     12.85199592	      8.78743846	     -7.60340120	      1.27634648	      1.81910222	     -0.84237080	      3.64405362	      6.39407041	      0.06360073	      9.91410310	     29.21241661	     -7.60340120	    -19.75299838	     -6.90903413	     -6.14670250	    -10.73883243	    -11.53098262	    -18.57135030	     73.43057841	     90.00000001	      0.00000000	      0.00000000	      5.30598346	    -26.58725818	     16.46904580	     89.39961956	     90.00000001	      0.00000000	      0.00000000
      2.14000000	      0.42258063	      7.81063482	     16.73358836	      0.47149674	      0.89223229	      0.41823373	     20.28632765	    -18.25457556	    -25.78953240	     30.68476295	     -0.15965361	      0.53555014	     12.59552960	      9.84887187	     -7.60082806	      0.99269542	      1.55574136	     -0.48890626	      3.79805329	      6.49454022	      0.06628853	     10.32934412	     29.45875511	     -7.60082806	    -19.86700955	     -6.69276744	     -6.32116615	    -10.44757955	    -11.43573339	    -18.33795708	     72.75067599	     90.00000001	      0.00000000	      0.00000000	      5.56977366	    -26.56563549	     16.80497491	     89.53231230	     90.00000001	      0.00000000	      0.00000000
      2.15000000	      0.18018706	      7.99452278	     17.06737261	      0.47549145	      0.89205573	      0.41952300	     20.09184878	    -18.13059813	    -25.92046329	     29.98341556	     -0.38796424	      0.52330932	     12.59062486	     10.10885930	     -7.60000065	      1.04570053	      1.72620236	     -0.31457223	      3.96913025	      6.32588678	      0.06927439	     10.43011958	     29.51171828	     -7.60000065	    -19.66277422	     -6.83742335	     -6.35282391	    -10.28431396	    -11.32472149	    -18.19315408	     72.41299567	     90.00000001	      0.00000000	      0.00000000	      5.76182200	    -26.49990448	     16.98552302	     89.67221993	     90.00000001	      0.00000000	      0.00000000
      2.16000000	      0.09636624	      7.99278605	     17.51928551	      0.47938800	      0.89232078	      0.42075724	     19.66210798	    -17.84629862	    -26.18868777	     29.45840950	     -0.55078896	      0.51414624	     12.69451026	     10.38920817	     -7.59900547	      1.07798637	      1.69264745	      0.08519891	      4.29682746	      6.08547752	      0.07499379	     10.68248579	     29.57694263	     -7.59900547	    -19.58243489	     -6.70798508	     -6.45218508	     -9.91223579	    -11.26735842	    -18.01529276	     71.69150736	     90.00000001	      0.00000000	      0.00000000	      5.99572334	    -26.39828591	     17.30291592	     89.70330701	     90.00000001	      0.00000000	      0.00000000
      2.17000000	      0.13743124	      7.87133161	     18.01474272	      0.48335751	      0.89282342	      0.42202049	     19.09129393	    -17.48507413	    -26.67829220	     29.16223428	     -0.69133760	      0.50897701	     12.91838281	     10.56972434	     -7.59765058	      1.07886493	      1.41602421	      0.40814506	      4.73097446	      6.02166249	      0.08257108	     11.08670528	     29.52443426	     -7.59765058	    -19.58079717	     -6.41453513	     -6.62202254	     -9.48448109	    -11.27008042	    -17.86028480	     71.03719047	     90.00000001	      0.00000000	      0.00000000	      6.22441899	    -26.23935413	     17.53766320	     89.64841565	     90.00000001	      0.00000000	      0.00000000
      2.18000000	      0.03987017	      7.90782621	     18.21271466	      0.48745178	      0.89319191	      0.42353424	     18.87754757	    -17.33355123	    -26.64585767	     29.23448698	     -0.74488174	      0.51023805	     12.98003516	     10.57495975	     -7.59732924	      1.05203966	      1.37813943	      0.53905663	      4.94435457	      5.93399533	      0.08629527	     11.11624457	     29.47197230	     -7.59732924	    -19.45768069	     -6.38319543	     -6.50938607	     -9.30307546	    -11.22660808	    -17.77507111	     70.90623845	     90.00000001	      0.00000000	      0.00000000	      6.31081628	    -25.95066962	     17.62980793	     89.71740490	     90.00000001	      0.00000000	      0.00000000
      2.19000000	      0.19676760	      7.46841038	     18.79817711	      0.49129764	      0.89400759	      0.42483900	     18.12400735	    -16.62391787	    -27.20559427	     28.87233845	     -0.80243150	      0.50391737	     13.31654155	     10.34178494	     -7.59422012	      1.37994630	      0.72673732	      0.91321133	      6.05461688	      5.92878271	      0.10567300	     11.94606389	     29.08649271	     -7.59422012	    -19.47698693	     -5.70979869	     -6.66645800	     -8.80719703	    -11.39732989	    -17.57447338	     70.00069992	     90.00000001	      0.00000000	      0.00000000	      6.49595274	    -25.67279696	     17.77653310	     89.56127275	     90.00000001	      0.00000000	      0.00000000
      2.20000000	      0.19162727	      7.36831162	     18.98924201	      0.49527335	      0.89464158	      0.42640487	     17.79317921	    -16.39168042	    -27.16353076	     29.01089716	     -0.66974806	      0.50633567	     13.58044482	     10.19618999	     -7.59344466	      1.46299202	      0.60824744	      1.07792639	      6.56938489	      5.70605627	      0.11465740	     12.00129928	     28.87847740	     -7.59344466	    -19.41919637	     -5.53646589	     -6.48854666	     -8.54444783	    -11.53744533	    -17.49667175	     69.56986423	     90.00000001	      0.00000000	      0.00000000	      6.66395763	    -25.31030725	     17.88195218	     89.50536127	     90.00000001	      0.00000000	      0.00000000
      2.21000000	      0.17628015	      7.12307762	     19.32265079	      0.49911347	      0.89532321	      0.42784918	     17.31293259	    -16.04382936	    -27.24542031	     28.84526271	     -0.38173302	      0.50344481	     13.99370683	      9.74105013	     -7.59193127	      1.89555897	      0.27544769	      1.13593683	      7.66245992	      5.67622111	      0.13373515	     12.41944498	     28.23350888	     -7.59193127	    -19.30573205	     -5.19433133	     -6.49604025	     -8.11333330	    -11.71595114	    -17.35831120	     68.90250514	     90.00000001	      0.00000000	      0.00000000	      6.73916604	    -24.96441362	     18.04426243	     89.26358608	     90.00000001	      0.00000000	      0.00000000
      2.22000000	      0.12548720	      6.79684787	     19.54638617	      0.50292137	      0.89588030	      0.42954251	     16.97555805	    -15.55196380	    -27.26531412	     28.68162964	     -0.17920121	      0.50058887	     14.09384173	      9.28376426	     -7.59020868	      2.40889015	     -0.12033475	      1.19702581	      8.76747665	      5.64139407	      0.15302133	     12.83922156	     27.55002009	     -7.59020868	    -19.14700096	     -4.83353817	     -6.33650067	     -7.85515520	    -11.92212141	    -17.27158357	     68.51450100	     90.00000001	      0.00000000	      0.00000000	      6.76166197	    -24.56487294	     18.10358854	     89.25055301	     90.00000001	      0.00000000	      0.00000000
      2.23000000	      0.05825189	      6.48550155	     19.70112813	      0.50668487	      0.89637082	      0.43133515	     16.66789225	    -15.05871894	    -27.32763869	     28.44388691	      0.01044609	      0.49643948	     14.18620504	      8.86880012	     -7.58833074	      2.95449045	     -0.49330319	      1.19084775	      9.90718180	      5.63283797	      0.17291294	     13.20041128	     26.79510396	     -7.58833074	    -18.97312249	     -4.52351084	     -6.14370867	     -7.59471853	    -12.16402925	    -17.21438352	     68.18503029	     90.00000001	      0.00000000	      0.00000000	      6.77489162	    -24.16931733	     18.17165717	     89.23678014	     90.00000001	      0.00000000	      0.00000000
